<svg viewBox="0 0 291 291" fill="none" xmlns="http://www.w3.org/2000/svg">
<style>
    path {
        fill: #171717;
    }
    @media (prefers-color-scheme: dark) {
        path {
            fill: #FDFDFD;
        }
    }
</style>
<path fill-rule="evenodd" clip-rule="evenodd" d="M3.0614 290.031L1.93101 288.751L0.965505 285.622L0 282.494L0.376705 279.649L2.26061 275.193L4.33291 271.543L6.35812 268.415L8.57171 264.528L10.173 261.589L13.2815 255.711L16.5783 248.458L18.5093 243.481L23.0307 233.526L28.5411 222.197L36.3594 207.312L41.5872 197.927L45.7318 190.579L48.4635 185.981L45.7318 187.782L47.5215 181.193L50.8168 172.48L53.8496 163.87L54.2027 161.824L57.9429 152.768L54.7448 154.841L56.6962 150.094L68.0707 131.633H65.6381L63.095 133.915L66.191 126.18L71.743 116.843L77.8157 108.323L82.1861 103.183L86.1886 99.8495L89.961 95.9601L95.2515 89.9406L99.731 85.2062L105.626 79.4529L112.057 73.8492L115.484 70.8982L119.162 68.1499L121.446 65.8503L123.787 63.9713L126.796 61.7557L132.118 58.727L134.738 57.3247V53.3424V48.9955L134.264 47.1726L133.372 44.957L132.258 42.6293L130.363 39.881L129.109 38.1983L127.66 36.8802L126.323 36.123L124.818 35.478L121.029 34.8891L114.982 33.7112L112.419 33.0941L107.626 31.8883L103.307 30.5701L97.6934 28.7975L96.0756 28.2722H94.6404V27.5631L95.0318 26.8278L96.0756 25.7247L98.0065 23.9126L100.277 22.2055L104.034 20.1045L107.626 18.3449L111.106 17.0055L114.785 15.955L118.751 14.7469L121.36 13.8014L122.9 12.7772L123.213 11.8317L123.735 11.464L125.196 11.0964L128.875 10.7549L133.833 9.91453L136.025 9.02159L138.086 7.83976L140.331 5.9751L142.392 4.47812L144.297 3.53266L147.689 2.35083L149.907 1.56295L153.247 0.722538L155.935 0.354858H159.849L163.658 0.906378L167.833 1.48416L173.287 2.77104L179.054 5.26601L185.316 9.25795L190.947 13.881L197.089 19.9703L199.625 23.0458L201.397 25.9059L203.383 30.4268L205.461 37.8078L207.05 44.051L207.814 49.4945L208.761 57.1216L209.158 59.1206L210.35 63.8568L210.9 66.4094L211.175 67.8548L211.695 68.839L213.559 71.3301L215.846 73.6281L218.899 76.7271L222.134 79.9837L224.17 82.2423L225.631 84.107L226.701 86.3919L227.666 89.8848L228.266 94.1919L228.423 100.941L228.136 105.249L227.17 110.16L226.231 115.885L224.613 123.291L222.369 130.014L219.421 138.891L216.968 145.693L213.836 152.705L211.384 157.091L209.27 160.164L208.513 158.483L208.044 158.352L207.261 159.376L205.774 163.71L203.425 171.352L201.672 175.503L197.56 182.344L192.903 189.523L186.483 197.673L182.581 201.643H181.449L177.714 198.518L173.03 202.732L170.449 204.925L167.491 206.9L165.501 207.415L164.318 207.171L163.942 206.657L164.318 205.818L165.259 204.14V203.165L164.802 202.435H163.753L162.221 203.788L160.186 205.162L157.287 206.267H153.6H152.53L151.995 206.9V207.683L150.701 207.881L149.096 209.043L148.928 210.629L147.07 210.374L146.845 211.167L145.719 211.677H144.875L144.171 212.414L143.89 213.037V214.652L142.731 216.734L140.878 219.177L139.208 221.409L145.132 227.66L150.898 233.569L158.048 240.712L164.702 247.225L168.172 250.403L170.521 251.821L178.023 254.102L183.629 255.423L186.173 255.663L188.877 254.742L191.262 254.102H196.152L199.253 254.742L202.712 256.503L205.733 258.984L209.272 262.425L210.146 264.506L210.424 269.587L208.675 267.187L207.323 265.426L205.415 263.545L203.547 262.025L202.274 261.345H200.803L200.048 262.425L199.492 263.906L197.941 264.826L196.152 265.146H194.085L190.865 264.506L188.121 264.186H185.537L185.02 264.506V266.987L184.504 267.187L183.629 266.586L182.237 263.225L181.403 262.025L180.806 261.585H180.13L177.268 264.826H176.354L172.457 262.865H171.702V263.545V263.909L173.03 264.506L175.082 265.392L176.687 266.372L179.633 269.02L181.403 271.164L183.629 274.077L184.264 275.454V276.169L183.317 276.301L182.237 275.878L179.975 273.812L178.213 272.382L176.055 271.164L172.457 269.708L169.952 269.39H168.347L166.847 270.079L166.374 270.847V271.853L165.637 272.594L164.217 273.018H160.24L154.819 272.382L147.644 272.005L144.084 271.39L143.871 271.853L144.907 274.385L146.661 277.809L148.442 281.741L148.202 282.436L147.644 282.142L146.661 281.179L144.323 277.969L143.871 277.541H142.941L142.157 278.242L141.4 278.426H140.2L137.512 277.349L133.05 274.723L128.797 272.005L127.127 271.39H124.779L122.065 271.676L117.577 273.147L112.332 275.537L107.035 278.11L104.921 279.003H103.512L102.469 277.795L102.234 276.613V274.512L101.529 274.066H99.4763L96.9089 275.219L94.4496 277.014L92.2875 279.326L90.5579 281.883L89.3147 284.44L88.6391 286.453L88.3418 286.833L87.4229 286.017L87.0716 283.569L87.4229 281.203L88.0715 278.809L89.1796 276.613L90.5579 274.702L92.747 272.471L94.963 270.758L97.4764 269.833L102.611 268.799L109.341 267.467L114.448 265.535L116.583 263.822L117.286 262.87V261.455L114.232 257.429L109.53 252.017L101.882 243.856L95.99 238.063L91.4497 234.118L88.5345 231.835L86.16 230.181L85.5076 229.944L83.2897 232.229L79.0625 237.823L75.4033 242.67L70.8215 248.495L64.6 256.116L59.0054 262.767L51.4816 270.758L46.7422 275.563L41.8714 279.838L38.3645 282.387L35.3251 284.466L31.6241 283.468L28.4407 282.785L26.3793 282.387H24.2918L20.8474 283.205L12.7721 286.76L6.84153 288.964L3.0614 290.031ZM102.436 228.628V227.57L103.37 225.101L104.266 221.573L104.85 218.163V216.517L108.121 214.714L115.092 210.795L118.09 209.267H119.57L121.089 211.148L122.646 215.342L124.282 219.535L125.528 221.573L126.969 223.141L129.656 225.414L134.414 229.883L142.189 237.565L149.002 244.309L153.215 248.634L155.872 252.191L156.268 253.13V254.866L154.657 257.54L153.413 259.105L151.349 260.3L147.617 261.638L143.49 262.577L139.051 262.321L136.337 260.841L134.471 260.3L131.22 258.422L128.675 256.573L122.71 251.081L115.59 243.768L110.104 238.331L106.509 234.15L104.284 231.359L102.436 229.257V228.628Z"/>
</svg>
