<?xml version="1.0" standalone="no"?>
<!DOCTYPE svg PUBLIC "-//W3C//DTD SVG 20010904//EN"
 "http://www.w3.org/TR/2001/REC-SVG-20010904/DTD/svg10.dtd">
<svg version="1.0" xmlns="http://www.w3.org/2000/svg"
 width="700.000000pt" height="700.000000pt" viewBox="0 0 700.000000 700.000000"
 preserveAspectRatio="xMidYMid meet">
<metadata>
Created by potrace 1.14, written by Peter Selinger 2001-2017
</metadata>
<g transform="translate(0.000000,700.000000) scale(0.100000,-0.100000)"
fill="#000000" stroke="none">
<path d="M4405 6981 c-151 -40 -202 -63 -293 -133 -35 -27 -79 -55 -98 -63
-39 -16 -138 -36 -199 -40 -55 -3 -88 -15 -103 -36 -7 -11 -25 -25 -40 -33
-24 -12 -175 -60 -223 -71 -52 -11 -216 -90 -289 -138 -56 -37 -130 -107 -130
-123 0 -7 26 -20 58 -29 31 -9 102 -31 157 -48 103 -32 106 -33 141 -40 11 -3
49 -12 85 -20 68 -17 157 -36 199 -43 14 -2 41 -7 60 -10 89 -15 169 -96 232
-234 27 -58 30 -77 33 -178 l3 -112 -28 -20 c-16 -11 -30 -20 -33 -20 -10 0
-132 -75 -187 -114 -30 -22 -80 -63 -110 -91 -30 -28 -73 -64 -95 -80 -21 -16
-46 -36 -55 -45 -9 -8 -49 -44 -90 -79 -106 -90 -250 -231 -355 -347 -49 -54
-152 -162 -230 -239 -138 -137 -185 -188 -215 -232 -8 -11 -40 -56 -71 -100
-89 -125 -184 -291 -223 -387 -20 -50 -36 -92 -36 -95 0 -3 13 7 28 22 19 18
37 26 55 25 15 -1 27 -3 27 -5 0 -4 -74 -128 -82 -138 -5 -5 -47 -73 -95 -150
-82 -133 -112 -190 -128 -244 l-7 -24 30 22 c17 11 32 21 35 21 3 0 -15 -47
-39 -104 -24 -57 -46 -117 -49 -134 -3 -17 -35 -111 -71 -209 -96 -263 -134
-383 -119 -383 3 0 18 8 33 17 20 13 24 14 15 3 -9 -13 -74 -124 -153 -265 -9
-16 -29 -52 -45 -80 -183 -323 -426 -813 -534 -1075 -64 -155 -132 -301 -148
-321 -7 -8 -13 -19 -13 -22 0 -11 -98 -186 -137 -245 -56 -85 -122 -225 -128
-270 -5 -46 35 -191 59 -211 18 -15 136 22 296 91 150 66 216 85 267 81 44 -3
195 -37 211 -47 12 -7 138 80 227 158 104 91 276 268 399 411 38 44 78 91 90
105 17 20 261 325 319 400 7 8 42 56 79 105 36 50 78 101 91 113 31 29 36 27
150 -65 107 -87 201 -176 394 -380 122 -128 245 -282 249 -311 2 -8 -13 -29
-32 -47 -47 -45 -170 -87 -324 -111 -166 -27 -238 -68 -316 -179 -51 -72 -74
-210 -40 -243 14 -14 16 -14 21 4 33 109 129 227 221 271 73 34 104 27 104
-25 1 -63 35 -87 91 -64 15 6 79 36 143 66 157 76 238 102 316 105 64 2 66 1
189 -73 153 -93 180 -103 232 -86 22 7 40 11 42 9 2 -2 20 -28 41 -56 21 -29
41 -53 45 -53 15 0 20 12 11 29 -32 57 -100 207 -100 219 0 11 7 13 33 7 17
-3 68 -8 112 -11 44 -2 100 -6 125 -9 203 -24 253 -19 268 25 6 15 20 34 32
40 52 28 215 -23 288 -89 79 -72 112 -88 112 -52 0 24 -84 134 -144 189 -26
24 -72 55 -102 69 -30 13 -54 31 -54 39 0 19 2 18 60 -11 27 -14 55 -25 62
-25 7 0 29 18 48 40 38 44 59 46 77 7 53 -115 70 -131 75 -70 3 37 4 38 43 37
22 0 58 -3 80 -7 22 -3 63 -9 90 -12 66 -9 125 11 143 47 16 35 41 48 68 38
25 -10 126 -108 165 -159 l25 -35 -6 72 c-4 39 -14 82 -23 96 -26 39 -152 143
-208 171 -73 38 -195 44 -288 15 -69 -21 -88 -21 -182 1 -26 6 -53 12 -60 13
-34 6 -197 60 -222 73 -52 26 -727 697 -727 721 0 5 18 33 41 63 51 68 60 85
66 122 5 34 19 51 48 55 11 2 22 8 23 13 2 5 15 9 28 9 17 0 24 6 24 20 0 18
36 47 53 42 5 -1 11 7 14 18 3 12 14 20 27 21 134 6 164 15 230 68 22 17 44
30 50 28 14 -5 20 -58 8 -66 -6 -3 -12 -15 -14 -26 -5 -31 52 -33 100 -3 36
22 153 119 200 166 15 15 28 20 35 14 7 -5 31 -24 55 -43 l43 -33 68 69 c110
114 227 276 351 485 24 41 47 77 50 80 8 8 24 51 75 210 68 209 85 240 104
188 7 -20 10 -18 39 23 34 50 93 166 140 274 35 81 209 595 216 640 3 17 12
66 21 109 8 44 18 93 20 110 13 76 18 102 23 121 3 11 6 85 7 165 3 169 -18
294 -60 367 -15 25 -94 114 -175 198 -81 84 -155 165 -163 181 -12 25 -41 138
-37 146 1 2 -4 17 -10 33 -13 35 -25 96 -35 175 -3 30 -8 71 -11 90 -2 19 -7
55 -9 80 -13 106 -93 396 -134 479 -15 32 -42 78 -59 103 -35 51 -207 223
-292 291 -157 126 -329 208 -490 232 -19 2 -61 9 -93 13 -99 15 -207 12 -282
-7z m-758 -5050 c10 -11 33 -61 52 -113 48 -132 69 -165 158 -243 131 -117
562 -546 609 -606 24 -31 45 -69 48 -84 6 -33 -31 -102 -75 -140 -46 -38 -181
-78 -264 -77 -62 0 -81 5 -160 43 -127 60 -182 105 -426 350 -215 217 -376
401 -374 429 0 8 10 47 22 85 20 64 33 130 37 180 1 13 22 33 65 58 35 20 64
37 66 37 1 0 42 22 91 50 97 54 124 60 151 31z"/>
</g>
</svg>
